# xmcd
#
# Track frame offsets:
#	150
#	9144
#	25429
#	49103
#	73558
#	96410
#	116044
#	142704
#	164111
#	181875
#	202912
#	224377
#	243949
#	264771
#
# Disc length: 3789 seconds
#
# Revision: 0
# Processed by: cddbd v1.5.2PL0 Copyright (c) Steve Scherf et al.
# Submitted via: audiograbber 1.83.01
#
DISCID=bc0ecb0e
DTITLE=Ganksta N-I-P - The South Park Psycho
DYEAR=1992
DGENRE=Rap
TTITLE0=Intro
TTITLE1=Horror Movie Rap
TTITLE2=Get Out Of The Game
TTITLE3=Rough Brother From South Park
TTITLE4=Black Godfather
TTITLE5=Psycho
TTITLE6=Action Speaks Louder Than Words
TTITLE7=Ganksta Mac
TTITLE8=Smokin Amp
TTITLE9=Disgusting
TTITLE10="H" Town
TTITLE11=Slaughter
TTITLE12=Paranoid
TTITLE13=Damned Shame
EXTD=RapMusicGuide.com
EXTT0=
EXTT1=
EXTT2=
EXTT3=
EXTT4=
EXTT5=
EXTT6=
EXTT7=
EXTT8=
EXTT9=
EXTT10=
EXTT11=
EXTT12=
EXTT13=
PLAYORDER=
